<svg width="172" height="159" viewBox="0 0 172 159" fill="none" xmlns="http://www.w3.org/2000/svg">
<rect x="13" width="159" height="159" rx="79.5" fill="white"/>
<g clip-path="url(#clip0_407_184)">
<path d="M58.2488 26.6416L78.4517 21.2283L79.7698 26.1473L59.5668 31.5607L58.2488 26.6416ZM78.7688 42.7835L98.9715 37.3742L100.29 42.2932L80.0868 47.7025L78.7688 42.7835ZM86.2692 131.235L106.473 125.827L107.791 130.747L87.5863 136.156L86.2692 131.235ZM96.0712 106.87L116.275 101.462L117.593 106.382L97.3868 111.79L96.0712 106.87Z" fill="#4F5457"/>
<path d="M92.12 146.891L123.001 76.308L118.807 60.6565L56.7721 14.9704C53.8039 12.8367 49.8872 21.0756 52.5095 24.8996L88.9796 77.0363L83.4639 140.423C83.1049 145.046 90.6163 150.223 92.12 146.891Z" fill="#42ADE2"/>
<path d="M147.669 68.4995C155.045 63.7274 152.848 55.5289 144.075 55.0838C132.866 54.4925 114.379 57.0495 94.0982 62.3506C62.2982 70.8714 37.8343 83.4177 39.5407 90.283C41.3381 96.9908 68.9551 95.7152 100.755 87.1944C120.879 81.8023 138.258 74.616 147.669 68.4995Z" fill="#DAE3EA"/>
<path d="M39.0236 115.186L49.9619 90.4205L48.4974 84.9548L26.6418 68.9765C25.6303 68.1824 24.1509 71.1084 25.0472 72.4659L37.8015 90.7498L35.8979 112.961C35.8005 114.585 38.5446 116.379 39.0236 115.186Z" fill="#42ADE2"/>
<path d="M48.2897 91.1343C37.11 94.1299 27.8334 95.2842 27.5249 93.6361C27.1255 92.1454 35.8274 88.3493 46.8495 85.2628C58.0292 82.2672 67.3058 81.1129 67.7718 82.8519C68.0137 84.2516 59.3119 88.0478 48.2897 91.1343Z" fill="#4F5457"/>
<path d="M143.851 69.657C146.275 67.2766 147.506 64.4172 146.865 61.5268C146.133 58.794 143.571 56.6847 140.347 56.0838L133.083 56.2996C136.306 56.9005 139.425 60.5914 140.157 63.3242C140.956 66.3054 140.034 70.813 137.543 72.9449L143.851 69.657Z" fill="#3E4347"/>
<path d="M134.192 64.0677L148.244 60.296L148.669 61.877L134.615 65.6493L134.192 64.0677Z" fill="#DAE3EA"/>
<path d="M82.8987 78.5564C84.8983 78.4396 86.1375 79.2746 86.6162 81.0612C87.1852 83.1846 86.5171 84.7337 84.612 85.7083C83.9874 86.024 83.3622 86.2656 82.7366 86.4333C82.111 86.6009 81.5634 86.7347 81.0938 86.8348C80.6258 86.9409 80.1643 87.0355 79.7095 87.1187C78.1794 87.3997 77.3592 87.4905 77.2488 87.3912C77.2058 87.3511 77.1716 87.2958 77.1463 87.2252L76.8721 85.8771C76.839 85.7054 76.9126 85.5954 77.0931 85.5471C77.2736 85.4987 77.6412 85.4389 78.1959 85.3676L75.5388 75.4512C75.0656 75.6102 74.7237 75.7179 74.5132 75.7744C74.3087 75.8292 74.1778 75.774 74.1207 75.6087L73.701 74.3673C73.6695 74.2016 73.7167 74.089 73.8426 74.0295C75.1661 73.4106 76.6459 72.8819 78.2821 72.4435C81.4883 71.5843 83.4291 72.415 84.1045 74.9355C84.4365 76.1747 84.2824 77.1637 83.6423 77.9026C83.4364 78.1447 83.1885 78.3627 82.8987 78.5564ZM80.2799 85.0606C80.8294 84.9457 81.3387 84.8253 81.8079 84.6996C82.2771 84.5739 82.7158 84.4305 83.124 84.2696C83.5366 84.101 83.8761 83.9004 84.1426 83.6678C84.7052 83.1689 84.8697 82.4833 84.636 81.6111C84.3104 80.396 83.4822 79.8797 82.1513 80.0622C81.7595 80.1156 81.2959 80.2141 80.7605 80.3575C80.2311 80.4994 79.697 80.6715 79.1581 80.8739L80.2799 85.0606ZM79.934 74.0607C79.5886 74.0953 79.2265 74.1633 78.8475 74.2648C78.4685 74.3664 78.0216 74.5151 77.5068 74.7111L78.6842 79.1054C78.8619 79.0707 79.0379 79.0299 79.2124 78.9832L79.7447 78.8406C80.7313 78.5762 81.421 78.227 81.8141 77.7929C82.2784 77.2881 82.3913 76.5905 82.1527 75.7002C81.8288 74.4911 81.0892 73.9446 79.934 74.0607ZM98.1008 74.9085C99.3274 79.4862 98.2534 82.2272 94.8787 83.1315C93.1162 83.6037 91.626 83.3841 90.4082 82.4725C89.1948 81.5533 88.2851 79.9628 87.6791 77.701C86.7458 74.2181 87.1053 71.7459 88.7575 70.2845C89.3113 69.8009 90.0153 69.4446 90.8695 69.2157C91.7297 68.9852 92.5231 68.9145 93.2497 69.0035C93.9824 69.0908 94.6508 69.3598 95.2551 69.8104C96.4881 70.7308 97.4367 72.4302 98.1008 74.9085ZM96.0301 75.3376C95.7803 74.4052 95.4945 73.6275 95.1729 73.0045C94.8512 72.3815 94.4982 71.9184 94.114 71.6152C93.7357 71.3103 93.3265 71.1427 92.8864 71.1124C92.4447 71.076 91.9501 71.1312 91.4027 71.2778C90.8553 71.4245 90.4105 71.6533 90.0683 71.9642C89.7261 72.2751 89.4873 72.6711 89.3519 73.1523C89.1086 74.0492 89.2215 75.3728 89.6906 77.1233C90.1693 78.9099 90.7929 80.1064 91.5615 80.7128C92.2702 81.2644 93.214 81.3822 94.393 81.0663C95.4698 80.7778 96.1374 80.1895 96.3959 79.3014C96.6324 78.4515 96.5104 77.1302 96.0301 75.3376ZM110.951 65.914C110.987 66.0464 110.936 66.1311 110.797 66.1682L109.644 66.4481L112.689 77.8853C112.733 78.0477 112.684 78.1543 112.543 78.205L110.391 78.9074C110.312 78.9283 110.225 78.8807 110.13 78.7645L101.66 68.4133L104.522 78.2266L105.914 77.7568C105.998 77.7342 106.062 77.7785 106.104 77.8895L106.737 79.635C106.757 79.7586 106.701 79.8381 106.568 79.8735L102.194 81.0166C102.11 81.0392 102.036 80.9815 101.973 80.8436L101.407 79.3803C101.389 79.2627 101.421 79.1927 101.506 79.1701L102.913 78.7545L100.299 69.0004L98.6672 69.5151C98.5994 69.5268 98.5533 69.523 98.5288 69.5038C98.5087 69.477 98.4829 69.4291 98.4516 69.3601L98.1253 67.7454C98.1067 67.6279 98.162 67.5454 98.2911 67.4979L102.208 66.2356C102.368 66.2057 102.502 66.2601 102.61 66.3988L110.806 76.5234L107.963 66.8503L106.552 67.1799C106.486 67.1977 106.44 67.1939 106.414 67.1687C106.387 67.1434 106.362 67.0955 106.336 67.0249L105.989 65.5126C105.967 65.3831 106.023 65.3005 106.155 65.2651L110.183 64.1663C110.251 64.1546 110.298 64.1614 110.324 64.1866C110.349 64.2058 110.374 64.2537 110.401 64.3303L110.951 65.914ZM117.68 64.2079C118.72 67.0561 119.622 69.9028 120.384 72.7481C120.781 74.2279 120.793 75.3433 120.42 76.0943C120.062 76.8284 119.267 77.3607 118.034 77.6911C117.931 77.7185 117.83 77.7391 117.731 77.7529L117.424 77.7966L117.626 78.2645C117.652 78.3607 117.597 78.4334 117.462 78.4825L116.118 78.9878C115.889 79.049 115.732 78.9656 115.645 78.7374L114.336 74.862C114.31 74.7204 114.356 74.6245 114.471 74.5742L115.692 74.1118C115.794 74.0844 115.876 74.1367 115.937 74.2686L116.768 76.2509C116.943 76.2555 117.157 76.224 117.41 76.1563C117.668 76.0869 117.897 75.9675 118.097 75.798C118.296 75.6285 118.434 75.4079 118.509 75.1362C118.652 74.6081 118.579 73.8087 118.292 72.7379C117.893 71.2461 117.433 69.7478 116.914 68.2428L115.716 64.7825L113.877 65.3912C113.781 65.417 113.717 65.3728 113.687 65.2585L113.169 63.5791C113.156 63.5053 113.162 63.4553 113.187 63.4292C113.211 63.3971 113.261 63.3675 113.337 63.3406L118.367 61.8284C118.463 61.8026 118.537 61.8603 118.588 62.0014L119.112 63.6694C119.126 63.7689 119.093 63.8389 119.014 63.8795L117.68 64.2079Z" fill="black"/>
<path d="M82.8987 78.5564L82.7326 78.3078L81.8184 78.9189L82.9161 78.8548L82.8987 78.5564ZM84.612 85.7083L84.7468 85.9751L84.7481 85.9745L84.612 85.7083ZM81.0938 86.8348L81.0315 86.5424L81.0277 86.5433L81.0938 86.8348ZM79.7095 87.1187L79.6557 86.8246L79.6555 86.8247L79.7095 87.1187ZM77.2488 87.3912L77.0449 87.6099L77.0488 87.6134L77.2488 87.3912ZM77.1463 87.2252L76.8533 87.2848L76.8576 87.306L76.8649 87.3263L77.1463 87.2252ZM76.8721 85.8771L76.5785 85.9337L76.5791 85.9366L76.8721 85.8771ZM78.1959 85.3676L78.234 85.6641L78.5731 85.6205L78.4846 85.2903L78.1959 85.3676ZM75.5388 75.4512L75.8275 75.3738L75.7452 75.0665L75.4435 75.1678L75.5388 75.4512ZM74.1207 75.6087L73.8375 75.7045L73.8382 75.7065L74.1207 75.6087ZM73.701 74.3673L73.4073 74.4231L73.4112 74.4434L73.4178 74.463L73.701 74.3673ZM73.8426 74.0295L73.7159 73.7587L73.7148 73.7593L73.8426 74.0295ZM83.6423 77.9026L83.4163 77.7068L83.4145 77.709L83.6423 77.9026ZM80.2799 85.0606L79.9912 85.138L80.0644 85.4112L80.3411 85.3532L80.2799 85.0606ZM83.124 84.2696L83.2336 84.5477L83.237 84.5463L83.124 84.2696ZM84.1426 83.6678L84.3392 83.893L84.3409 83.8915L84.1426 83.6678ZM82.1513 80.0622L82.1917 80.3584L82.192 80.3584L82.1513 80.0622ZM79.1581 80.8739L79.053 80.5941L78.7992 80.6894L78.8693 80.9513L79.1581 80.8739ZM79.934 74.0607L79.9637 74.3582L79.9639 74.3582L79.934 74.0607ZM77.5068 74.7111L77.4004 74.4317L77.1482 74.5278L77.218 74.7885L77.5068 74.7111ZM78.6842 79.1054L78.3955 79.1827L78.4677 79.4523L78.7415 79.3988L78.6842 79.1054ZM81.8141 77.7929L81.594 77.5905L81.5925 77.5922L81.8141 77.7929ZM82.9161 78.8548C83.8727 78.7989 84.6113 78.9727 85.1608 79.3429C85.7073 79.7111 86.1022 80.2977 86.3275 81.1385L86.905 80.9838C86.6515 80.038 86.1875 79.3138 85.4948 78.8471C84.8051 78.3824 83.9243 78.1971 82.8813 78.258L82.9161 78.8548ZM86.3275 81.1385C86.5999 82.1551 86.5677 83.0009 86.2674 83.6972C85.9676 84.3923 85.3835 84.9779 84.4758 85.4422L84.7481 85.9745C85.7456 85.4642 86.4481 84.7879 86.8164 83.9339C87.1842 83.0811 87.2015 82.0907 86.905 80.9838L86.3275 81.1385ZM84.4772 85.4416C83.8694 85.7487 83.2635 85.9826 82.6593 86.1445L82.814 86.722C83.461 86.5487 84.1053 86.2993 84.7468 85.9751L84.4772 85.4416ZM82.6593 86.1445C82.0371 86.3113 81.4947 86.4438 81.0315 86.5424L81.1561 87.1272C81.6321 87.0257 82.185 86.8906 82.814 86.722L82.6593 86.1445ZM81.0277 86.5433C80.5636 86.6484 80.1063 86.7422 79.6557 86.8246L79.7633 87.4127C80.2224 87.3287 80.6879 87.2333 81.1598 87.1263L81.0277 86.5433ZM79.6555 86.8247C78.8925 86.9648 78.3133 87.0562 77.9139 87.1005C77.7131 87.1227 77.5661 87.132 77.4674 87.1311C77.4175 87.1307 77.3891 87.1276 77.3764 87.1253C77.3513 87.1208 77.3973 87.1227 77.4487 87.169L77.0488 87.6134C77.1278 87.6845 77.2236 87.7053 77.2705 87.7137C77.3298 87.7244 77.3955 87.7283 77.4619 87.729C77.5959 87.7302 77.7703 87.7179 77.9797 87.6947C78.4005 87.6481 78.9964 87.5536 79.7635 87.4127L79.6555 86.8247ZM77.4526 87.1725C77.4526 87.1725 77.4498 87.1699 77.4452 87.1626C77.4406 87.155 77.4343 87.1428 77.4276 87.1242L76.8649 87.3263C76.9021 87.4296 76.9588 87.5296 77.0449 87.6098L77.4526 87.1725ZM77.4392 87.1657L77.165 85.8175L76.5791 85.9366L76.8533 87.2848L77.4392 87.1657ZM77.1656 85.8205C77.1622 85.8031 77.1638 85.7982 77.1631 85.8025C77.1628 85.8049 77.1619 85.8092 77.1598 85.8148C77.1577 85.8206 77.1547 85.8265 77.1509 85.8322C77.1471 85.8378 77.1432 85.8421 77.1401 85.845C77.1371 85.8479 77.1354 85.8489 77.1359 85.8486C77.1373 85.8477 77.1471 85.8421 77.1705 85.8358L77.0157 85.2583C76.8841 85.2936 76.7451 85.3636 76.6541 85.4995C76.5608 85.6388 76.552 85.7961 76.5785 85.9337L77.1656 85.8205ZM77.1705 85.8358C77.3283 85.7935 77.6759 85.7358 78.234 85.6641L78.1578 85.0711C77.6064 85.142 77.2188 85.2039 77.0157 85.2583L77.1705 85.8358ZM78.4846 85.2903L75.8275 75.3738L75.25 75.5286L77.9071 85.445L78.4846 85.2903ZM75.4435 75.1678C74.9707 75.3268 74.6366 75.4318 74.4358 75.4856L74.5906 76.0631C74.8109 76.0041 75.1605 75.8937 75.634 75.7346L75.4435 75.1678ZM74.4358 75.4856C74.4037 75.4942 74.3838 75.4959 74.374 75.4959C74.3648 75.4959 74.3679 75.4944 74.3779 75.4986C74.3827 75.5007 74.388 75.5036 74.3932 75.5074C74.3983 75.5112 74.4022 75.515 74.4048 75.518C74.4099 75.5241 74.4077 75.5242 74.4032 75.511L73.8382 75.7065C73.8876 75.8492 73.9844 75.9815 74.1455 76.0495C74.2958 76.1129 74.4543 76.0996 74.5906 76.0631L74.4358 75.4856ZM74.4039 75.513L73.9842 74.2715L73.4178 74.463L73.8375 75.7045L74.4039 75.513ZM73.9946 74.3114C73.9904 74.2892 73.9902 74.2758 73.9906 74.2698C73.9909 74.2643 73.9915 74.2669 73.9884 74.2742C73.9869 74.2777 73.9849 74.2818 73.9821 74.2858C73.9794 74.2899 73.9764 74.2934 73.9737 74.2961C73.968 74.3017 73.9654 74.3021 73.9704 74.2998L73.7148 73.7593C73.5952 73.8158 73.4932 73.9091 73.4371 74.043C73.3837 74.1704 73.3846 74.3039 73.4073 74.4231L73.9946 74.3114ZM73.9692 74.3003C75.2746 73.6898 76.7376 73.1668 78.3595 72.7322L78.2047 72.1547C76.5542 72.597 75.0576 73.1313 73.7159 73.7587L73.9692 74.3003ZM78.3595 72.7322C79.9326 72.3107 81.1424 72.3193 82.0247 72.6969C82.891 73.0677 83.4956 73.8181 83.8157 75.0129L84.3932 74.8581C84.038 73.5324 83.3344 72.6072 82.26 72.1473C81.2015 71.6943 79.8378 71.7171 78.2047 72.1547L78.3595 72.7322ZM83.8157 75.0129C84.131 76.1895 83.9719 77.0657 83.4163 77.7069L83.8682 78.0983C84.593 77.2617 84.742 76.1599 84.3932 74.8581L83.8157 75.0129ZM83.4145 77.709C83.2282 77.9281 83.0016 78.128 82.7326 78.3078L83.0648 78.8049C83.3754 78.5973 83.6445 78.3614 83.87 78.0962L83.4145 77.709ZM80.3411 85.3532C80.8952 85.2373 81.41 85.1157 81.8853 84.9883L81.7305 84.4108C81.2674 84.5349 80.7635 84.654 80.2187 84.7681L80.3411 85.3532ZM81.8853 84.9883C82.3643 84.86 82.8138 84.7132 83.2336 84.5477L83.0143 83.9915C82.6177 84.1479 82.1899 84.2878 81.7305 84.4108L81.8853 84.9883ZM83.237 84.5463C83.6725 84.3684 84.0424 84.1521 84.3392 83.893L83.946 83.4426C83.7098 83.6488 83.4006 83.8336 83.0109 83.9929L83.237 84.5463ZM84.3409 83.8915C84.6648 83.6042 84.8811 83.2556 84.9786 82.8492C85.0752 82.4463 85.0509 82.0048 84.9247 81.5337L84.3472 81.6885C84.4547 82.0897 84.465 82.4271 84.3972 82.7097C84.3303 82.9889 84.183 83.2325 83.9443 83.4442L84.3409 83.8915ZM84.9247 81.5337C84.7482 80.8749 84.4241 80.3677 83.9287 80.0589C83.4365 79.752 82.8194 79.6689 82.1107 79.766L82.192 80.3584C82.8141 80.273 83.2766 80.3568 83.6125 80.5662C83.9453 80.7737 84.1982 81.1322 84.3472 81.6885L84.9247 81.5337ZM82.111 79.766C81.7028 79.8217 81.2262 79.9232 80.6831 80.0688L80.8379 80.6463C81.3655 80.5049 81.8162 80.4096 82.1917 80.3584L82.111 79.766ZM80.6831 80.0688C80.1439 80.2133 79.6005 80.3884 79.053 80.5941L79.2632 81.1538C79.7935 80.9546 80.3183 80.7855 80.8379 80.6463L80.6831 80.0688ZM78.8693 80.9513L79.9912 85.138L80.5687 84.9833L79.4468 80.7965L78.8693 80.9513ZM79.9043 73.7633C79.5409 73.7996 79.1627 73.8709 78.7701 73.9761L78.9249 74.5536C79.2902 74.4557 79.6364 74.3909 79.9637 74.3582L79.9043 73.7633ZM78.7701 73.9761C78.3783 74.0811 77.9213 74.2335 77.4004 74.4317L77.6131 74.9905C78.1219 74.7968 78.5587 74.6517 78.9249 74.5536L78.7701 73.9761ZM77.218 74.7885L78.3955 79.1827L78.9729 79.028L77.7955 74.6337L77.218 74.7885ZM78.7415 79.3988C78.9259 79.3627 79.1087 79.3205 79.2897 79.2719L79.135 78.6945C78.9672 78.7394 78.7978 78.7786 78.6269 78.812L78.7415 79.3988ZM79.2897 79.2719L79.8221 79.1293L79.6674 78.5518L79.135 78.6945L79.2897 79.2719ZM79.8221 79.1293C80.8279 78.8598 81.5848 78.4915 82.0357 77.9935L81.5925 77.5922C81.2573 77.9625 80.6347 78.2926 79.6674 78.5518L79.8221 79.1293ZM82.0341 77.9952C82.5906 77.3901 82.6964 76.5741 82.4415 75.6229L81.864 75.7776C82.0862 76.6069 81.9662 77.186 81.5941 77.5905L82.0341 77.9952ZM82.4415 75.6229C82.2683 74.9764 81.9737 74.4689 81.5327 74.1431C81.0887 73.8151 80.5354 73.6999 79.9041 73.7633L79.9639 74.3582C80.4877 74.3055 80.8818 74.4055 81.1774 74.6239C81.4761 74.8446 81.7132 75.215 81.864 75.7776L82.4415 75.6229ZM90.4082 82.4725L90.2277 82.7108L90.2291 82.7118L90.4082 82.4725ZM88.7575 70.2845L88.5609 70.0594L88.5595 70.0606L88.7575 70.2845ZM93.2497 69.0035L93.2134 69.3002L93.2143 69.3003L93.2497 69.0035ZM95.2551 69.8104L95.4339 69.5709L95.4338 69.5708L95.2551 69.8104ZM94.114 71.6152L93.9264 71.8479L93.9288 71.8498L94.114 71.6152ZM92.8864 71.1124L92.8619 71.4103L92.8658 71.4106L92.8864 71.1124ZM89.3519 73.1523L89.0641 73.0713L89.0634 73.074L89.3519 73.1523ZM91.5615 80.7128L91.3763 80.9475L91.3779 80.9488L91.5615 80.7128ZM96.3959 79.3014L96.6829 79.385L96.6839 79.3815L96.3959 79.3014ZM97.812 74.9859C98.4181 77.2477 98.4403 79.0039 97.9369 80.2885C97.4412 81.5534 96.4163 82.41 94.8013 82.8427L94.9561 83.4202C96.7157 82.9487 97.9152 81.9827 98.4935 80.5066C99.0642 79.0502 99.0101 77.147 98.3895 74.8311L97.812 74.9859ZM94.8013 82.8427C93.1077 83.2965 91.7169 83.0787 90.5874 82.2332L90.2291 82.7118C91.5352 83.6895 93.1247 83.9109 94.9561 83.4202L94.8013 82.8427ZM90.5887 82.2342C89.4501 81.3716 88.5654 79.8539 87.9678 77.6236L87.3903 77.7784C88.0048 80.0717 88.9396 81.735 90.2277 82.7108L90.5887 82.2342ZM87.9678 77.6236C87.0439 74.1754 87.4338 71.8544 88.9556 70.5084L88.5595 70.0606C86.7768 71.6374 86.4478 74.2607 87.3903 77.7784L87.9678 77.6236ZM88.9541 70.5097C89.4673 70.0615 90.128 69.7239 90.9469 69.5045L90.7922 68.927C89.9027 69.1653 89.1554 69.5402 88.5609 70.0594L88.9541 70.5097ZM90.9469 69.5045C91.7779 69.2818 92.5321 69.2167 93.2134 69.3002L93.2861 68.7068C92.5141 68.6122 91.6816 68.6887 90.7922 68.927L90.9469 69.5045ZM93.2143 69.3003C93.8939 69.3813 94.5131 69.63 95.0764 70.05L95.4338 69.5708C94.7885 69.0896 94.0709 68.8004 93.2851 68.7066L93.2143 69.3003ZM95.0763 70.05C96.2299 70.9111 97.1547 72.5328 97.812 74.9859L98.3895 74.8311C97.7187 72.3275 96.7464 70.5505 95.4339 69.5709L95.0763 70.05ZM96.3189 75.2602C96.0654 74.3143 95.7729 73.515 95.4385 72.8674L94.9073 73.1416C95.2162 73.74 95.4952 74.4961 95.7414 75.415L96.3189 75.2602ZM95.4385 72.8674C95.1051 72.2216 94.7281 71.719 94.2991 71.3805L93.9288 71.8498C94.2684 72.1178 94.5973 72.5413 94.9073 73.1416L95.4385 72.8674ZM94.3015 71.3824C93.8807 71.0433 93.4143 70.8492 92.907 70.8142L92.8658 71.4106C93.2387 71.4363 93.5907 71.5774 93.9264 71.8479L94.3015 71.3824ZM92.9109 70.8145C92.427 70.7746 91.8972 70.8359 91.3254 70.9891L91.4801 71.5666C92.0031 71.4264 92.4624 71.3774 92.8619 71.4103L92.9109 70.8145ZM91.3254 70.9891C90.7422 71.1454 90.2518 71.3936 89.8673 71.743L90.2693 72.1855C90.5692 71.913 90.9685 71.7037 91.4801 71.5666L91.3254 70.9891ZM89.8673 71.743C89.4802 72.0946 89.2134 72.5407 89.0641 73.0713L89.6396 73.2333C89.7611 72.8015 89.972 72.4556 90.2693 72.1855L89.8673 71.743ZM89.0634 73.074C88.7985 74.0508 88.9299 75.4393 89.4018 77.2007L89.9793 77.046C89.5132 75.3064 89.4188 74.0475 89.6404 73.2305L89.0634 73.074ZM89.4018 77.2007C89.8845 79.0019 90.5288 80.2788 91.3763 80.9475L91.7466 80.4782C91.057 79.934 90.4541 78.8179 89.9793 77.046L89.4018 77.2007ZM91.3779 80.9488C92.185 81.5769 93.2359 81.6858 94.4704 81.355L94.3157 80.7775C93.1922 81.0786 92.3553 80.9519 91.745 80.4769L91.3779 80.9488ZM94.4704 81.355C95.6239 81.0459 96.3889 80.3953 96.6829 79.3849L96.1089 79.2179C95.886 79.9837 95.3157 80.5096 94.3157 80.7775L94.4704 81.355ZM96.6839 79.3815C96.9435 78.4485 96.8009 77.0591 96.3189 75.2602L95.7414 75.415C96.22 77.2014 96.3213 78.4545 96.1079 79.2213L96.6839 79.3815ZM110.951 65.914L111.24 65.8367L111.237 65.8262L111.234 65.816L110.951 65.914ZM110.797 66.1682L110.868 66.4587L110.875 66.4569L110.797 66.1682ZM109.644 66.4481L109.573 66.1576L109.276 66.2297L109.355 66.525L109.644 66.4481ZM112.689 77.8853L112.4 77.9622L112.4 77.9626L112.689 77.8853ZM112.543 78.205L112.636 78.4893L112.644 78.4863L112.543 78.205ZM110.391 78.9074L110.468 79.1961L110.476 79.194L110.483 79.1915L110.391 78.9074ZM110.13 78.7645L109.899 78.9538L109.899 78.9544L110.13 78.7645ZM101.66 68.4133L101.891 68.224L101.373 68.497L101.66 68.4133ZM104.522 78.2266L104.235 78.3103L104.322 78.6095L104.617 78.5098L104.522 78.2266ZM105.914 77.7568L105.837 77.4681L105.828 77.4705L105.819 77.4736L105.914 77.7568ZM106.104 77.8895L106.386 77.7877L106.383 77.7824L106.104 77.8895ZM106.737 79.635L107.032 79.5868L107.027 79.5594L107.018 79.5332L106.737 79.635ZM106.568 79.8735L106.644 80.1627L106.646 80.1623L106.568 79.8735ZM102.194 81.0166L102.118 80.7274L102.117 80.7279L102.194 81.0166ZM101.973 80.8436L101.695 80.9515L101.698 80.9595L101.701 80.9674L101.973 80.8436ZM101.407 79.3803L101.112 79.427L101.117 79.4584L101.128 79.4881L101.407 79.3803ZM101.506 79.1701L101.583 79.459L101.59 79.4568L101.506 79.1701ZM102.913 78.7545L102.997 79.0411L103.277 78.9586L103.201 78.6771L102.913 78.7545ZM100.299 69.0004L100.588 68.9231L100.507 68.6214L100.209 68.7154L100.299 69.0004ZM98.6672 69.5151L98.7181 69.8096L98.7379 69.8062L98.7571 69.8002L98.6672 69.5151ZM98.5288 69.5038L98.2894 69.6829L98.3131 69.7145L98.3442 69.7389L98.5288 69.5038ZM98.4516 69.3601L98.1586 69.4193L98.1653 69.4528L98.1795 69.4839L98.4516 69.3601ZM98.1253 67.7454L97.8298 67.7922L97.8323 67.8046L98.1253 67.7454ZM98.2911 67.4979L98.1993 67.2132L98.1879 67.2174L98.2911 67.4979ZM102.208 66.2356L102.153 65.9418L102.134 65.9453L102.116 65.9511L102.208 66.2356ZM102.61 66.3988L102.374 66.5826L102.377 66.5869L102.61 66.3988ZM110.806 76.5234L110.574 76.7115L111.093 76.4391L110.806 76.5234ZM107.963 66.8503L108.249 66.766L108.17 66.4949L107.895 66.5592L107.963 66.8503ZM106.552 67.1799L106.484 66.8887L106.475 66.8912L106.552 67.1799ZM106.336 67.0249L106.045 67.0918L106.049 67.1092L106.055 67.126L106.336 67.0249ZM105.989 65.5126L105.694 65.5622L105.696 65.5709L105.698 65.5795L105.989 65.5126ZM106.155 65.2651L106.232 65.5538L106.234 65.5535L106.155 65.2651ZM110.183 64.1663L110.132 63.8718L110.118 63.8742L110.105 63.8779L110.183 64.1663ZM110.324 64.1866L110.116 64.4015L110.128 64.4122L110.14 64.4217L110.324 64.1866ZM110.401 64.3303L110.684 64.2322L110.683 64.231L110.401 64.3303ZM110.663 65.9914C110.668 66.0097 110.653 65.9723 110.684 65.9216C110.713 65.8739 110.748 65.872 110.72 65.8794L110.875 66.4569C110.985 66.4273 111.115 66.3645 111.195 66.232C111.277 66.0966 111.271 65.9507 111.24 65.8367L110.663 65.9914ZM110.727 65.8777L109.573 66.1576L109.714 66.7386L110.868 66.4586L110.727 65.8777ZM109.355 66.525L112.4 77.9622L112.978 77.8084L109.933 66.3712L109.355 66.525ZM112.4 77.9626C112.412 78.0052 112.399 77.995 112.413 77.9625C112.421 77.9461 112.432 77.9337 112.441 77.9262C112.449 77.9196 112.451 77.9202 112.442 77.9237L112.644 78.4863C112.768 78.4417 112.89 78.3569 112.957 78.2115C113.021 78.0725 113.01 77.9277 112.978 77.8079L112.4 77.9626ZM112.45 77.9208L110.298 78.6232L110.483 79.1915L112.636 78.4891L112.45 77.9208ZM110.313 78.6186C110.336 78.6126 110.358 78.612 110.378 78.6151C110.397 78.6181 110.408 78.6237 110.41 78.6252C110.413 78.6266 110.409 78.6249 110.4 78.6163C110.39 78.6078 110.377 78.5945 110.361 78.5746L109.899 78.9544C110.003 79.0812 110.203 79.2672 110.468 79.1961L110.313 78.6186ZM110.361 78.5752L101.891 68.224L101.429 68.6026L109.899 78.9538L110.361 78.5752ZM101.373 68.497L104.235 78.3103L104.809 78.1429L101.947 68.3296L101.373 68.497ZM104.617 78.5098L106.01 78.04L105.819 77.4736L104.426 77.9434L104.617 78.5098ZM105.991 78.0455C105.98 78.0487 105.958 78.0523 105.93 78.0481C105.901 78.0439 105.875 78.0327 105.854 78.0182C105.817 77.9923 105.815 77.969 105.825 77.9967L106.383 77.7824C106.351 77.699 106.296 77.598 106.196 77.5279C106.082 77.4485 105.952 77.4372 105.837 77.4681L105.991 78.0455ZM105.823 77.9913L106.455 79.7368L107.018 79.5332L106.385 77.7878L105.823 77.9913ZM106.442 79.6833C106.442 79.6878 106.441 79.6814 106.443 79.6674C106.446 79.6521 106.453 79.6332 106.465 79.615C106.491 79.5782 106.517 79.5779 106.491 79.5848L106.646 80.1623C106.752 80.1337 106.872 80.0759 106.954 79.9596C107.039 79.8389 107.05 79.7027 107.032 79.5868L106.442 79.6833ZM106.493 79.5843L102.118 80.7274L102.269 81.3058L106.644 80.1627L106.493 79.5843ZM102.117 80.7279C102.138 80.7221 102.167 80.7198 102.198 80.7267C102.228 80.7335 102.249 80.7463 102.26 80.7552C102.271 80.7633 102.272 80.7676 102.268 80.7612C102.263 80.7549 102.256 80.742 102.246 80.7198L101.701 80.9674C101.742 81.0558 101.8 81.1541 101.891 81.2254C101.996 81.3075 102.131 81.343 102.271 81.3054L102.117 80.7279ZM102.252 80.7357L101.686 79.2724L101.128 79.4881L101.695 80.9515L102.252 80.7357ZM101.703 79.3335C101.698 79.3042 101.708 79.3254 101.689 79.3664C101.678 79.3893 101.661 79.4121 101.638 79.4304C101.615 79.448 101.595 79.4557 101.583 79.4589L101.428 78.8814C101.313 78.9122 101.206 78.9872 101.147 79.1128C101.095 79.2238 101.098 79.3388 101.112 79.427L101.703 79.3335ZM101.59 79.4568L102.997 79.0411L102.828 78.4678L101.421 78.8835L101.59 79.4568ZM103.201 78.6771L100.588 68.9231L100.01 69.0778L102.624 78.8318L103.201 78.6771ZM100.209 68.7154L98.5773 69.23L98.7571 69.8002L100.389 69.2855L100.209 68.7154ZM98.6163 69.2205C98.5964 69.224 98.595 69.2222 98.606 69.2231C98.6146 69.2238 98.6621 69.2285 98.7133 69.2687L98.3442 69.7389C98.4199 69.7984 98.5027 69.8145 98.5575 69.819C98.6146 69.8236 98.6702 69.8179 98.7181 69.8096L98.6163 69.2205ZM98.7681 69.3247C98.7707 69.3282 98.7673 69.3241 98.7577 69.3063C98.7489 69.2899 98.7376 69.2669 98.7237 69.2363L98.1795 69.4839C98.2115 69.5542 98.2484 69.628 98.2894 69.6829L98.7681 69.3247ZM98.7446 69.3009L98.4183 67.6862L97.8323 67.8046L98.1586 69.4193L98.7446 69.3009ZM98.4206 67.6987C98.4203 67.6971 98.4217 67.7044 98.4192 67.7177C98.4166 67.732 98.4107 67.7476 98.4012 67.7618C98.3824 67.7897 98.3667 67.7886 98.3943 67.7785L98.1879 67.2174C98.0864 67.2547 97.9784 67.3186 97.9044 67.4291C97.8269 67.5449 97.8114 67.6746 97.83 67.7921L98.4206 67.6987ZM98.3828 67.7824L102.3 66.5201L102.116 65.9511L98.1994 67.2134L98.3828 67.7824ZM102.263 66.5294C102.294 66.5237 102.308 66.5279 102.316 66.5309C102.325 66.5345 102.345 66.5456 102.374 66.5825L102.845 66.215C102.766 66.1133 102.666 66.0278 102.541 65.9771C102.414 65.9257 102.282 65.9176 102.153 65.9418L102.263 66.5294ZM102.377 66.5869L110.574 76.7115L111.038 76.3353L102.842 66.2107L102.377 66.5869ZM111.093 76.4391L108.249 66.766L107.676 66.9346L110.519 76.6077L111.093 76.4391ZM107.895 66.5592L106.484 66.8888L106.62 67.471L108.031 67.1414L107.895 66.5592ZM106.475 66.8912C106.46 66.895 106.469 66.8906 106.492 66.8925C106.519 66.8946 106.572 66.9064 106.621 66.9538L106.206 67.3836C106.355 67.528 106.549 67.4902 106.629 67.4687L106.475 66.8912ZM106.621 66.9538C106.631 66.9629 106.636 66.97 106.638 66.9727C106.64 66.9754 106.64 66.9757 106.638 66.9724C106.634 66.9652 106.627 66.9501 106.618 66.9239L106.055 67.126C106.083 67.2032 106.127 67.3076 106.206 67.3836L106.621 66.9538ZM106.628 66.9581L106.28 65.4457L105.698 65.5795L106.045 67.0918L106.628 66.9581ZM106.284 65.463C106.281 65.4485 106.29 65.4794 106.263 65.5199C106.237 65.5583 106.209 65.5599 106.232 65.5538L106.078 64.9763C105.968 65.0057 105.847 65.0663 105.766 65.1872C105.683 65.3102 105.675 65.4472 105.694 65.5622L106.284 65.463ZM106.234 65.5535L110.262 64.4547L110.105 63.8779L106.076 64.9767L106.234 65.5535ZM110.234 64.4609C110.25 64.4582 110.245 64.4611 110.227 64.4585C110.207 64.4556 110.161 64.4442 110.116 64.4015L110.532 63.9717C110.395 63.8394 110.216 63.8574 110.132 63.8718L110.234 64.4609ZM110.14 64.4217C110.129 64.4135 110.121 64.4058 110.116 64.3998C110.11 64.3939 110.106 64.3889 110.103 64.3855C110.099 64.379 110.097 64.3759 110.099 64.3784C110.1 64.3806 110.102 64.3858 110.106 64.3948C110.11 64.4037 110.114 64.4152 110.119 64.4296L110.683 64.231C110.667 64.1846 110.648 64.1379 110.625 64.0955C110.605 64.0583 110.569 63.9989 110.509 63.9515L110.14 64.4217ZM110.119 64.4284L110.669 66.0121L111.234 65.816L110.684 64.2322L110.119 64.4284ZM117.68 64.2079L117.608 63.9176L117.285 63.9973L117.399 64.3104L117.68 64.2079ZM120.42 76.0943L120.152 75.9614L120.151 75.9633L120.42 76.0943ZM117.731 77.7529L117.69 77.4568L117.689 77.4569L117.731 77.7529ZM117.424 77.7966L117.381 77.5006L116.993 77.5558L117.149 77.9154L117.424 77.7966ZM117.626 78.2645L117.915 78.1871L117.909 78.1658L117.901 78.1456L117.626 78.2645ZM117.462 78.4825L117.36 78.2015L117.357 78.2027L117.462 78.4825ZM116.118 78.9878L116.195 79.2765L116.209 79.2727L116.223 79.2676L116.118 78.9878ZM115.645 78.7374L115.361 78.8331L115.365 78.8438L115.645 78.7374ZM114.336 74.862L114.041 74.9141L114.045 74.9363L114.052 74.9577L114.336 74.862ZM114.471 74.5742L114.365 74.2947L114.358 74.2972L114.352 74.3001L114.471 74.5742ZM115.692 74.1118L115.614 73.8231L115.6 73.827L115.586 73.8323L115.692 74.1118ZM115.937 74.2686L116.213 74.1529L116.208 74.1429L115.937 74.2686ZM116.768 76.2509L116.492 76.3665L116.567 76.5446L116.76 76.5497L116.768 76.2509ZM118.509 75.1362L118.798 75.2162L118.798 75.2139L118.509 75.1362ZM116.914 68.2428L117.196 68.1453L117.196 68.145L116.914 68.2428ZM115.716 64.7825L115.998 64.6847L115.902 64.406L115.622 64.4987L115.716 64.7825ZM113.877 65.3912L113.954 65.68L113.963 65.6777L113.971 65.675L113.877 65.3912ZM113.687 65.2585L113.976 65.1811L113.972 65.1704L113.687 65.2585ZM113.169 63.5791L112.875 63.6322L112.878 63.6499L112.883 63.6671L113.169 63.5791ZM113.187 63.4292L113.402 63.637L113.416 63.6225L113.428 63.6063L113.187 63.4292ZM113.337 63.3406L113.251 63.054L113.238 63.0586L113.337 63.3406ZM118.367 61.8284L118.29 61.5395L118.281 61.5421L118.367 61.8284ZM118.588 62.0014L118.873 61.9117L118.869 61.9004L118.588 62.0014ZM119.112 63.6694L119.408 63.6285L119.405 63.6037L119.397 63.5798L119.112 63.6694ZM119.014 63.8795L119.085 64.1698L119.119 64.1615L119.15 64.1457L119.014 63.8795ZM117.399 64.3104C118.437 67.1506 119.335 69.9889 120.095 72.8254L120.673 72.6707C119.908 69.8167 119.004 66.9615 117.961 64.1053L117.399 64.3104ZM120.095 72.8254C120.487 74.2868 120.475 75.3114 120.152 75.9614L120.688 76.2271C121.11 75.3751 121.074 74.169 120.673 72.6707L120.095 72.8254ZM120.151 75.9633C119.848 76.5847 119.153 77.0818 117.956 77.4024L118.111 77.9799C119.381 77.6396 120.276 77.0722 120.689 76.2252L120.151 75.9633ZM117.956 77.4024C117.865 77.4268 117.777 77.4448 117.69 77.4568L117.772 78.049C117.884 78.0334 117.997 78.0103 118.111 77.9799L117.956 77.4024ZM117.689 77.4569L117.381 77.5006L117.466 78.0925L117.773 78.0488L117.689 77.4569ZM117.149 77.9154L117.352 78.3833L117.901 78.1456L117.698 77.6777L117.149 77.9154ZM117.338 78.3418C117.335 78.331 117.331 78.3096 117.336 78.2819C117.341 78.2532 117.353 78.2289 117.366 78.2115C117.378 78.1954 117.388 78.1892 117.387 78.1897C117.386 78.1902 117.379 78.1949 117.36 78.2015L117.564 78.7635C117.657 78.7297 117.767 78.6732 117.844 78.5709C117.932 78.4534 117.949 78.3143 117.915 78.1871L117.338 78.3418ZM117.357 78.2027L116.013 78.7079L116.223 79.2676L117.567 78.7623L117.357 78.2027ZM116.041 78.699C115.975 78.7166 115.961 78.7031 115.968 78.7069C115.974 78.7098 115.951 78.7023 115.924 78.631L115.365 78.8438C115.425 79.0006 115.525 79.149 115.688 79.2353C115.853 79.3226 116.033 79.3201 116.195 79.2765L116.041 78.699ZM115.928 78.6417L114.619 74.7663L114.052 74.9577L115.362 78.8331L115.928 78.6417ZM114.63 74.8099C114.624 74.7788 114.633 74.7866 114.621 74.8113C114.615 74.8237 114.607 74.8341 114.599 74.8416C114.591 74.8485 114.587 74.8498 114.591 74.8483L114.352 74.3001C114.241 74.3485 114.139 74.431 114.08 74.5564C114.023 74.6771 114.022 74.8036 114.041 74.9141L114.63 74.8099ZM114.577 74.8537L115.797 74.3913L115.586 73.8323L114.365 74.2947L114.577 74.8537ZM115.769 74.4006C115.762 74.4025 115.746 74.4053 115.724 74.4024C115.702 74.3995 115.683 74.3916 115.668 74.3823C115.643 74.366 115.648 74.3559 115.665 74.3943L116.208 74.1429C116.165 74.0493 116.098 73.9472 115.991 73.8786C115.872 73.8028 115.738 73.7899 115.614 73.8231L115.769 74.4006ZM115.661 74.3841L116.492 76.3665L117.043 76.1353L116.212 74.153L115.661 74.3841ZM116.76 76.5497C116.974 76.5554 117.219 76.5169 117.487 76.445L117.332 75.8675C117.095 75.931 116.912 75.9557 116.775 75.9521L116.76 76.5497ZM117.487 76.445C117.787 76.3645 118.056 76.2247 118.29 76.0258L117.903 75.5702C117.738 75.7104 117.549 75.8094 117.332 75.8675L117.487 76.445ZM118.29 76.0258C118.539 75.8146 118.707 75.5409 118.798 75.2162L118.221 75.0562C118.161 75.2749 118.054 75.4424 117.903 75.5702L118.29 76.0258ZM118.798 75.2139C118.962 74.605 118.87 73.7398 118.581 72.6606L118.004 72.8153C118.288 73.8776 118.341 74.6112 118.221 75.0585L118.798 75.2139ZM118.581 72.6606C118.18 71.1618 117.718 69.6567 117.196 68.1453L116.631 68.3403C117.148 69.8388 117.606 71.3305 118.004 72.8153L118.581 72.6606ZM117.196 68.145L115.998 64.6847L115.433 64.8803L116.631 68.3406L117.196 68.145ZM115.622 64.4987L113.783 65.1075L113.971 65.675L115.81 65.0663L115.622 64.4987ZM113.8 65.1025C113.804 65.1015 113.82 65.0976 113.845 65.1005C113.873 65.1036 113.902 65.1138 113.928 65.1322C113.978 65.167 113.982 65.2047 113.976 65.1811L113.398 65.3358C113.422 65.4266 113.473 65.5436 113.586 65.6226C113.71 65.7089 113.848 65.7086 113.954 65.68L113.8 65.1025ZM113.972 65.1704L113.455 63.491L112.883 63.6671L113.401 65.3465L113.972 65.1704ZM113.463 63.5259C113.46 63.5054 113.462 63.5065 113.46 63.5216C113.459 63.537 113.449 63.588 113.402 63.637L112.972 63.2214C112.899 63.2965 112.875 63.3855 112.867 63.4508C112.859 63.5159 112.865 63.5789 112.875 63.6322L113.463 63.5259ZM113.428 63.6063C113.417 63.6211 113.407 63.6303 113.401 63.6349C113.396 63.6396 113.393 63.6412 113.394 63.6405C113.395 63.6398 113.399 63.6376 113.407 63.6343C113.414 63.631 113.424 63.627 113.437 63.6225L113.238 63.0586C113.153 63.0886 113.027 63.1424 112.946 63.2521L113.428 63.6063ZM113.423 63.6268L118.453 62.1147L118.281 61.5421L113.251 63.0543L113.423 63.6268ZM118.445 62.1171C118.432 62.1205 118.409 62.124 118.38 62.1185C118.35 62.1129 118.326 62.1002 118.31 62.0875C118.295 62.0758 118.29 62.067 118.292 62.0696C118.293 62.0722 118.299 62.082 118.306 62.1025L118.869 61.9004C118.835 61.806 118.779 61.6958 118.679 61.6172C118.563 61.5259 118.422 61.5043 118.29 61.5397L118.445 62.1171ZM118.302 62.0911L118.827 63.7591L119.397 63.5798L118.873 61.9118L118.302 62.0911ZM118.816 63.7104C118.817 63.7197 118.813 63.7005 118.827 63.6697C118.843 63.6357 118.867 63.6185 118.877 63.6134L119.15 64.1457C119.239 64.1 119.32 64.0274 119.368 63.9234C119.416 63.8225 119.421 63.7186 119.408 63.6285L118.816 63.7104ZM118.942 63.5893L117.608 63.9176L117.751 64.4981L119.085 64.1698L118.942 63.5893Z" fill="black"/>
</g>
<defs>
<clipPath id="clip0_407_184">
<rect x="58.4849" width="116.396" height="116.396" transform="rotate(30 58.4849 0)" fill="white"/>
</clipPath>
</defs>
</svg>
