<svg width="196" height="199" viewBox="0 0 196 199" fill="none" xmlns="http://www.w3.org/2000/svg">
<g clip-path="url(#clip0_407_360)">
<rect width="196" height="198.716" fill="white"/>
<rect width="196" height="198.925" fill="black"/>
<rect x="-0.116595" y="-0.800262" width="14.5572" height="48.7549" transform="matrix(0.597773 -0.801665 -0.801665 -0.597773 138.671 127.534)" fill="#C4C4C4" stroke="black" stroke-width="1.14369"/>
<rect x="132.048" y="57.408" width="14.5572" height="48.7549" transform="rotate(53.2894 132.048 57.408)" fill="#C4C4C4" stroke="black" stroke-width="1.14369"/>
<rect x="91.3521" y="42.8884" width="16.8694" height="89.6368" fill="#3BE4E4" stroke="black" stroke-width="1.14369"/>
<rect x="-0.571845" y="-0.571845" width="14.5821" height="103.504" transform="matrix(-4.37114e-08 -1 -1 4.37114e-08 150.967 155.256)" fill="#C4C4C4" stroke="black" stroke-width="1.14369"/>
<path d="M68.9215 146.495H69.5801V151.105H68.9215V146.495ZM70.9322 147.654C70.9893 147.654 71.0397 147.667 71.0836 147.694C71.1319 147.716 71.1736 147.76 71.2088 147.825L71.301 147.997H71.4063C71.5424 147.852 71.6741 147.755 71.8015 147.707C71.9288 147.654 72.1022 147.628 72.3217 147.628C72.7827 147.628 73.1185 147.738 73.3293 147.957C73.54 148.177 73.6453 148.526 73.6453 149.004V151.105H72.9868V149.011C72.9868 148.712 72.9363 148.482 72.8354 148.319C72.7344 148.157 72.539 148.076 72.2493 148.076C72.0649 148.076 71.9068 148.098 71.7751 148.142C71.6478 148.181 71.5293 148.243 71.4195 148.326V151.105H70.761V148.372L70.6095 147.654H70.9322ZM74.958 147.444C74.958 146.983 75.0546 146.653 75.2477 146.456C75.4453 146.254 75.768 146.153 76.2158 146.153C76.3958 146.153 76.5758 146.168 76.7558 146.199L76.6834 146.627C76.556 146.609 76.4024 146.601 76.2224 146.601C75.8185 146.601 75.6165 146.84 75.6165 147.318V147.707H76.5912V148.155H75.6165V151.105H74.958V148.155H74.4575V147.924L74.958 147.707V147.444ZM80.135 149.406C80.135 149.972 80.0033 150.411 79.7399 150.723C79.4765 151.03 79.077 151.184 78.5413 151.184C78.0101 151.184 77.6128 151.03 77.3494 150.723C77.086 150.411 76.9543 149.972 76.9543 149.406C76.9543 148.84 77.086 148.403 77.3494 148.095C77.6128 147.784 78.0101 147.628 78.5413 147.628C79.077 147.628 79.4765 147.784 79.7399 148.095C80.0033 148.403 80.135 148.84 80.135 149.406ZM78.5479 150.736C79.1406 150.736 79.437 150.293 79.437 149.406C79.437 148.519 79.1406 148.076 78.5479 148.076C78.2274 148.076 77.997 148.199 77.8565 148.445C77.7204 148.686 77.6523 149.006 77.6523 149.406C77.6523 149.805 77.7204 150.128 77.8565 150.374C77.997 150.615 78.2274 150.736 78.5479 150.736ZM81.215 147.654C81.2721 147.654 81.3226 147.667 81.3665 147.694C81.4148 147.716 81.4565 147.76 81.4916 147.825L81.5838 147.997H81.6892C81.7902 147.852 81.8999 147.755 82.0185 147.707C82.1414 147.654 82.3148 147.628 82.5387 147.628C82.6353 147.628 82.6924 147.632 82.7099 147.641V148.181H82.4399C82.0975 148.181 81.856 148.254 81.7155 148.398V151.105H81.057V148.372L80.9055 147.654H81.215ZM84.9511 147.628C85.377 147.628 85.6952 147.751 85.906 147.997H86.0113C86.1474 147.852 86.277 147.755 86.3999 147.707C86.5272 147.654 86.6874 147.628 86.8806 147.628C87.3372 147.628 87.6796 147.744 87.9079 147.977C88.1406 148.21 88.2569 148.55 88.2569 148.998V151.105H87.5984V149.004C87.5984 148.723 87.5391 148.499 87.4206 148.333C87.3065 148.161 87.1199 148.076 86.8609 148.076C86.7028 148.076 86.5667 148.095 86.4526 148.135C86.3384 148.175 86.2199 148.247 86.097 148.352C86.1584 148.537 86.1891 148.752 86.1891 148.998V151.105H85.5306V149.004C85.5306 148.706 85.4845 148.477 85.3923 148.319C85.3045 148.157 85.1289 148.076 84.8655 148.076C84.5582 148.076 84.3013 148.159 84.095 148.326V151.105H83.4365V148.372L83.285 147.654H83.6077C83.6648 147.654 83.7153 147.667 83.7592 147.694C83.8074 147.716 83.8492 147.76 83.8843 147.825L83.9765 147.997H84.0818C84.2179 147.852 84.3474 147.755 84.4704 147.707C84.5977 147.654 84.7579 147.628 84.9511 147.628ZM90.6295 147.628C90.1422 147.628 89.7712 147.793 89.5165 148.122C89.2619 148.447 89.1346 148.875 89.1346 149.406C89.1346 149.95 89.2663 150.383 89.5297 150.703C89.7931 151.024 90.1795 151.184 90.6887 151.184C91.1234 151.184 91.5361 151.098 91.9268 150.927L91.7951 150.532C91.6019 150.598 91.4263 150.646 91.2683 150.677C91.1146 150.703 90.9456 150.716 90.7612 150.716C90.1422 150.716 89.8326 150.328 89.8326 149.551H92.0519V149.307C92.0519 148.188 91.5778 147.628 90.6295 147.628ZM89.8326 149.143C89.8458 148.8 89.9073 148.537 90.017 148.352C90.1312 148.168 90.3331 148.076 90.6229 148.076C90.917 148.076 91.119 148.17 91.2287 148.359C91.3385 148.543 91.3934 148.804 91.3934 149.143H89.8326ZM94.0808 151.184C93.6154 151.184 93.2642 151.03 93.0271 150.723C92.7944 150.416 92.6781 149.981 92.6781 149.419C92.6781 148.857 92.8142 148.418 93.0864 148.102C93.3586 147.786 93.7471 147.628 94.252 147.628C94.3573 147.628 94.4649 147.641 94.5747 147.667C94.6888 147.689 94.781 147.714 94.8512 147.74C94.9259 147.762 94.9742 147.777 94.9961 147.786V146.232H95.6547V150.427L95.8127 151.158H95.4966C95.3737 151.158 95.2793 151.101 95.2134 150.986L95.1212 150.815H95.0159C94.9149 150.956 94.792 151.052 94.6471 151.105C94.5022 151.158 94.3134 151.184 94.0808 151.184ZM93.3761 149.413C93.3761 149.83 93.4376 150.154 93.5605 150.387C93.6878 150.62 93.9183 150.736 94.252 150.736C94.4056 150.736 94.5461 150.712 94.6734 150.664C94.8008 150.611 94.9083 150.547 94.9961 150.473V148.207C94.9786 148.199 94.9369 148.185 94.871 148.168C94.8095 148.146 94.7239 148.126 94.6142 148.109C94.5044 148.087 94.3837 148.076 94.252 148.076C93.9315 148.076 93.7054 148.192 93.5737 148.425C93.442 148.657 93.3761 148.987 93.3761 149.413ZM98.7173 146.495H99.3758V151.105H98.7173V146.495ZM101.062 146.495L99.5273 148.695L101.2 151.204L101.905 151.112L100.199 148.649L101.799 146.495H101.062ZM102.727 147.654C102.784 147.654 102.834 147.667 102.878 147.694C102.927 147.716 102.968 147.76 103.003 147.825L103.096 147.997H103.201C103.302 147.852 103.412 147.755 103.53 147.707C103.653 147.654 103.827 147.628 104.05 147.628C104.147 147.628 104.204 147.632 104.222 147.641V148.181H103.952C103.609 148.181 103.368 148.254 103.227 148.398V151.105H102.569V148.372L102.417 147.654H102.727ZM107.49 150.295C107.49 150.444 107.505 150.552 107.536 150.618C107.567 150.679 107.635 150.725 107.74 150.756L107.648 151.151C107.644 151.155 107.626 151.162 107.595 151.171C107.569 151.18 107.532 151.184 107.484 151.184C107.356 151.18 107.26 151.158 107.194 151.118C107.128 151.083 107.064 151.011 107.003 150.901L106.904 150.723H106.799C106.68 150.881 106.544 150.997 106.39 151.072C106.237 151.147 106.05 151.184 105.831 151.184C105.493 151.184 105.225 151.096 105.027 150.921C104.83 150.741 104.731 150.484 104.731 150.15C104.731 149.808 104.841 149.553 105.06 149.386C105.28 149.219 105.622 149.118 106.087 149.083L106.838 149.024V148.807C106.838 148.543 106.781 148.357 106.667 148.247C106.553 148.133 106.342 148.076 106.035 148.076C105.811 148.076 105.501 148.124 105.106 148.221L104.988 147.832C105.137 147.775 105.326 147.727 105.554 147.687C105.782 147.648 105.98 147.628 106.147 147.628C106.59 147.628 106.924 147.718 107.148 147.898C107.376 148.074 107.49 148.357 107.49 148.747V150.295ZM106.206 149.478C105.67 149.518 105.403 149.731 105.403 150.117C105.403 150.53 105.609 150.736 106.022 150.736C106.254 150.736 106.447 150.681 106.601 150.572C106.759 150.457 106.838 150.273 106.838 150.018V149.432L106.206 149.478ZM108.837 147.444C108.837 146.983 108.933 146.653 109.126 146.456C109.324 146.254 109.647 146.153 110.094 146.153C110.274 146.153 110.454 146.168 110.634 146.199L110.562 146.627C110.435 146.609 110.281 146.601 110.101 146.601C109.697 146.601 109.495 146.84 109.495 147.318V147.707H110.47V148.155H109.495V151.105H108.837V148.155H108.336V147.924L108.837 147.707V147.444ZM111.241 147.259C111.263 147.132 111.303 147.037 111.36 146.976C111.417 146.915 111.498 146.884 111.603 146.884H111.814V147.707H112.789V148.161H111.814V150.15C111.814 150.334 111.847 150.475 111.913 150.572C111.983 150.668 112.13 150.716 112.354 150.716C112.49 150.716 112.646 150.699 112.822 150.664L112.907 151.098C112.859 151.116 112.765 151.134 112.624 151.151C112.488 151.173 112.374 151.184 112.282 151.184C111.865 151.184 111.573 151.094 111.406 150.914C111.239 150.73 111.155 150.433 111.155 150.025V148.161H110.655V147.931L111.155 147.707L111.241 147.259ZM115.973 150.15C115.973 150.501 115.854 150.763 115.617 150.934C115.38 151.101 115.082 151.184 114.722 151.184C114.313 151.184 113.905 151.083 113.497 150.881L113.668 150.473C113.866 150.556 114.037 150.622 114.182 150.67C114.327 150.714 114.482 150.736 114.649 150.736C114.856 150.736 115.02 150.699 115.143 150.624C115.27 150.545 115.334 150.418 115.334 150.242C115.334 150.119 115.299 150.021 115.229 149.946C115.158 149.871 115.016 149.79 114.801 149.702L114.386 149.538C114.158 149.45 113.978 149.334 113.846 149.189C113.714 149.044 113.648 148.855 113.648 148.622C113.648 148.315 113.765 148.074 113.997 147.898C114.23 147.718 114.522 147.628 114.873 147.628C115.18 147.628 115.518 147.698 115.887 147.839L115.749 148.254C115.437 148.135 115.139 148.076 114.853 148.076C114.449 148.076 114.248 148.229 114.248 148.537C114.248 148.66 114.289 148.756 114.373 148.826C114.456 148.892 114.605 148.971 114.82 149.064L115.268 149.261C115.51 149.366 115.688 149.487 115.802 149.623C115.916 149.755 115.973 149.931 115.973 150.15ZM118.521 147.628C118.947 147.628 119.265 147.751 119.476 147.997H119.581C119.717 147.852 119.847 147.755 119.97 147.707C120.097 147.654 120.257 147.628 120.45 147.628C120.907 147.628 121.249 147.744 121.478 147.977C121.71 148.21 121.827 148.55 121.827 148.998V151.105H121.168V149.004C121.168 148.723 121.109 148.499 120.99 148.333C120.876 148.161 120.69 148.076 120.431 148.076C120.273 148.076 120.137 148.095 120.022 148.135C119.908 148.175 119.79 148.247 119.667 148.352C119.728 148.537 119.759 148.752 119.759 148.998V151.105H119.1V149.004C119.1 148.706 119.054 148.477 118.962 148.319C118.874 148.157 118.699 148.076 118.435 148.076C118.128 148.076 117.871 148.159 117.665 148.326V151.105H117.006V148.372L116.855 147.654H117.178C117.235 147.654 117.285 147.667 117.329 147.694C117.377 147.716 117.419 147.76 117.454 147.825L117.546 147.997H117.652C117.788 147.852 117.917 147.755 118.04 147.707C118.168 147.654 118.328 147.628 118.521 147.628ZM125.51 150.295C125.51 150.444 125.525 150.552 125.556 150.618C125.587 150.679 125.655 150.725 125.76 150.756L125.668 151.151C125.663 151.155 125.646 151.162 125.615 151.171C125.589 151.18 125.551 151.184 125.503 151.184C125.376 151.18 125.279 151.158 125.213 151.118C125.148 151.083 125.084 151.011 125.022 150.901L124.924 150.723H124.818C124.7 150.881 124.564 150.997 124.41 151.072C124.256 151.147 124.07 151.184 123.85 151.184C123.512 151.184 123.244 151.096 123.047 150.921C122.849 150.741 122.751 150.484 122.751 150.15C122.751 149.808 122.86 149.553 123.08 149.386C123.299 149.219 123.642 149.118 124.107 149.083L124.858 149.024V148.807C124.858 148.543 124.801 148.357 124.687 148.247C124.572 148.133 124.362 148.076 124.054 148.076C123.831 148.076 123.521 148.124 123.126 148.221L123.007 147.832C123.157 147.775 123.345 147.727 123.574 147.687C123.802 147.648 124 147.628 124.166 147.628C124.61 147.628 124.943 147.718 125.167 147.898C125.396 148.074 125.51 148.357 125.51 148.747V150.295ZM124.226 149.478C123.69 149.518 123.422 149.731 123.422 150.117C123.422 150.53 123.629 150.736 124.041 150.736C124.274 150.736 124.467 150.681 124.621 150.572C124.779 150.457 124.858 150.273 124.858 150.018V149.432L124.226 149.478ZM126.856 147.654C126.913 147.654 126.964 147.667 127.008 147.694C127.056 147.716 127.098 147.76 127.133 147.825L127.225 147.997H127.33C127.466 147.852 127.598 147.755 127.725 147.707C127.853 147.654 128.026 147.628 128.246 147.628C128.707 147.628 129.043 147.738 129.253 147.957C129.464 148.177 129.569 148.526 129.569 149.004V151.105H128.911V149.011C128.911 148.712 128.86 148.482 128.759 148.319C128.658 148.157 128.463 148.076 128.173 148.076C127.989 148.076 127.831 148.098 127.699 148.142C127.572 148.181 127.453 148.243 127.344 148.326V151.105H126.685V148.372L126.534 147.654H126.856Z" fill="black"/>
<rect x="69.0504" y="113.94" width="51.609" height="9.72137" transform="rotate(-90 69.0504 113.94)" fill="#838C92" stroke="black" stroke-width="1.14369"/>
<line x1="91.8268" y1="132.892" x2="100.03" y2="133.029" stroke="black" stroke-width="0.136718"/>
<line x1="91.8267" y1="128.799" x2="98.1162" y2="128.904" stroke="black" stroke-width="0.119714"/>
<line x1="91.8267" y1="108.428" x2="98.1162" y2="108.533" stroke="black" stroke-width="0.119714"/>
<line x1="91.8267" y1="92.0218" x2="98.1162" y2="92.1267" stroke="black" stroke-width="0.119714"/>
<line x1="91.8267" y1="75.3423" x2="98.1162" y2="75.4471" stroke="black" stroke-width="0.119714"/>
<line x1="91.8267" y1="58.6628" x2="98.1162" y2="58.7676" stroke="black" stroke-width="0.119714"/>
<line x1="91.8265" y1="124.709" x2="95.9269" y2="124.777" stroke="black" stroke-width="0.0966605"/>
<line x1="91.8265" y1="104.338" x2="95.9269" y2="104.406" stroke="black" stroke-width="0.0966605"/>
<line x1="91.8265" y1="87.9319" x2="95.9269" y2="88.0002" stroke="black" stroke-width="0.0966605"/>
<line x1="91.8265" y1="71.2523" x2="95.9269" y2="71.3206" stroke="black" stroke-width="0.0966605"/>
<line x1="91.8265" y1="54.5727" x2="95.9269" y2="54.6411" stroke="black" stroke-width="0.0966605"/>
<line x1="91.8265" y1="120.607" x2="95.9269" y2="120.676" stroke="black" stroke-width="0.0966605"/>
<line x1="91.8265" y1="100.236" x2="95.9269" y2="100.305" stroke="black" stroke-width="0.0966605"/>
<line x1="91.8265" y1="83.8304" x2="95.9269" y2="83.8987" stroke="black" stroke-width="0.0966605"/>
<line x1="91.8265" y1="67.1508" x2="95.9269" y2="67.2191" stroke="black" stroke-width="0.0966605"/>
<line x1="91.8265" y1="50.4713" x2="95.9269" y2="50.5396" stroke="black" stroke-width="0.0966605"/>
<line x1="91.8267" y1="116.494" x2="98.1185" y2="116.599" stroke="black" stroke-width="0.119736"/>
<line x1="91.8267" y1="96.1234" x2="98.1185" y2="96.2283" stroke="black" stroke-width="0.119736"/>
<line x1="91.8267" y1="79.7173" x2="98.1185" y2="79.8222" stroke="black" stroke-width="0.119736"/>
<line x1="91.8267" y1="63.0377" x2="98.1185" y2="63.1426" stroke="black" stroke-width="0.119736"/>
<line x1="91.8267" y1="46.3582" x2="98.1185" y2="46.4631" stroke="black" stroke-width="0.119736"/>
<line x1="91.8268" y1="112.384" x2="100.03" y2="112.521" stroke="black" stroke-width="0.136718"/>
<line x1="91.8268" y1="92.0133" x2="100.03" y2="92.1501" stroke="black" stroke-width="0.136718"/>
<line x1="91.8268" y1="75.6073" x2="100.03" y2="75.744" stroke="black" stroke-width="0.136718"/>
<line x1="91.8268" y1="58.9277" x2="100.03" y2="59.0645" stroke="black" stroke-width="0.136718"/>
<line x1="91.8268" y1="42.2482" x2="100.03" y2="42.3849" stroke="black" stroke-width="0.136718"/>
<rect x="48.0347" y="52.3238" width="51.609" height="9.72137" fill="#3BE4E4" stroke="black" stroke-width="1.14369"/>
<rect x="48.0347" y="113.225" width="51.609" height="9.72137" fill="#3BE4E4" stroke="black" stroke-width="1.14369"/>
<path d="M139.435 148.492C139.408 148.442 139.374 148.396 139.334 148.356L138.877 147.905C138.83 147.857 138.775 147.819 138.714 147.791C138.618 147.748 138.511 147.735 138.407 147.754C138.304 147.773 138.209 147.823 138.134 147.897C137.976 148.053 137.686 148.338 137.163 148.855C136.163 149.845 134.307 151.504 133.467 152.212C133.425 152.247 133.39 152.291 133.366 152.34C133.341 152.39 133.327 152.444 133.325 152.499C133.322 152.554 133.331 152.609 133.351 152.661C133.371 152.712 133.401 152.759 133.44 152.798L134.411 153.781C134.45 153.82 134.497 153.851 134.548 153.871C134.6 153.891 134.655 153.901 134.71 153.898C134.766 153.896 134.82 153.883 134.87 153.859C134.92 153.835 134.964 153.8 135 153.758C135.728 152.902 137.398 151.043 138.386 150.065C138.894 149.565 139.179 149.278 139.34 149.12C139.42 149.039 139.472 148.934 139.489 148.821C139.506 148.709 139.487 148.593 139.435 148.492Z" fill="black" stroke="black" stroke-width="0.772463" stroke-linecap="round" stroke-linejoin="round"/>
<path d="M144.439 147.346L143.585 146.499C143.572 146.486 143.557 146.475 143.539 146.469C143.522 146.462 143.504 146.459 143.486 146.459C143.467 146.459 143.449 146.462 143.432 146.469C143.415 146.476 143.399 146.486 143.386 146.499C143.355 146.53 143.318 146.553 143.277 146.567C143.235 146.581 143.191 146.586 143.148 146.58C143.037 146.568 142.918 146.533 142.841 146.459C142.667 146.288 142.868 145.952 142.715 145.737C142.54 145.501 142.348 145.279 142.14 145.071C141.965 144.896 141.274 144.237 140.11 143.762C139.739 143.61 139.341 143.532 138.94 143.532C138.284 143.532 137.779 143.825 137.595 143.993C137.449 144.126 137.296 144.336 137.296 144.336C137.384 144.304 137.474 144.277 137.566 144.256C137.756 144.216 137.951 144.203 138.145 144.219C138.533 144.251 138.999 144.433 139.25 144.63C139.654 144.954 139.827 145.387 139.854 145.946C139.874 146.362 139.475 146.887 139.096 147.315C139.063 147.353 139.045 147.402 139.047 147.452C139.049 147.502 139.07 147.55 139.106 147.585L139.635 148.114C139.672 148.15 139.721 148.171 139.773 148.172C139.825 148.172 139.875 148.152 139.912 148.117C140.259 147.78 140.687 147.407 140.929 147.258C141.171 147.109 141.367 147.067 141.46 147.056C141.645 147.038 141.83 147.079 141.991 147.171C142.019 147.187 142.045 147.207 142.067 147.231C142.228 147.394 142.219 147.661 142.055 147.822L142.005 147.869C141.992 147.882 141.982 147.897 141.975 147.914C141.968 147.931 141.964 147.949 141.964 147.967C141.964 147.985 141.968 148.003 141.975 148.02C141.982 148.037 141.992 148.052 142.005 148.065L142.859 148.912C142.873 148.925 142.888 148.935 142.905 148.942C142.922 148.948 142.941 148.952 142.959 148.951C142.996 148.952 143.032 148.938 143.059 148.912L144.439 147.545C144.465 147.518 144.479 147.483 144.479 147.446C144.479 147.408 144.465 147.373 144.439 147.346Z" fill="black" stroke="black" stroke-width="0.772463" stroke-linecap="round" stroke-linejoin="round"/>
<g clip-path="url(#clip1_407_360)">
<path d="M65.3166 151.706L61.1969 147.586C61.6043 146.545 61.378 145.322 60.5178 144.462C59.6124 143.557 58.2543 143.376 57.1678 143.874L59.1144 145.82L57.7563 147.179L55.7644 145.232C55.2211 146.318 55.4475 147.677 56.3529 148.582C57.213 149.442 58.4354 149.669 59.4766 149.261L63.5963 153.381C63.7774 153.562 64.049 153.562 64.2301 153.381L65.2713 152.34C65.4977 152.158 65.4977 151.842 65.3166 151.706Z" fill="black"/>
</g>
</g>
<defs>
<clipPath id="clip0_407_360">
<rect width="196" height="198.716" fill="black"/>
</clipPath>
<clipPath id="clip1_407_360">
<rect width="10.8651" height="10.8651" fill="black" transform="translate(55.04 143.104)"/>
</clipPath>
</defs>
</svg>
